<?xml version="1.0" encoding="UTF-8"?><svg id="Layer_2" xmlns="http://www.w3.org/2000/svg" xmlns:xlink="http://www.w3.org/1999/xlink" viewBox="0 0 643.79 109.72"><defs><style>.cls-1{opacity:.11;}.cls-2{fill:url(#linear-gradient-2);}.cls-3{opacity:.3;}.cls-4{fill:#3f6370;}.cls-5{font-family:SegoeUI, 'Segoe UI';font-size:43.76px;}.cls-6{fill:url(#radial-gradient);}.cls-7{letter-spacing:-.1em;}.cls-8{opacity:.21;}.cls-9{fill:url(#radial-gradient-2);}.cls-10{fill:url(#linear-gradient);}</style><linearGradient id="linear-gradient" x1="8.81" y1="55.55" x2="75.78" y2="55.55" gradientUnits="userSpaceOnUse"><stop offset="0" stop-color="#000"/><stop offset=".05" stop-color="#060606"/><stop offset=".11" stop-color="#191919"/><stop offset=".18" stop-color="#373737"/><stop offset=".27" stop-color="#616161"/><stop offset=".36" stop-color="#979797"/><stop offset=".45" stop-color="#d8d8d8"/><stop offset=".5" stop-color="#fff"/><stop offset=".52" stop-color="#efefef"/><stop offset=".59" stop-color="#bdbdbd"/><stop offset=".65" stop-color="#919191"/><stop offset=".72" stop-color="#6e6e6e"/><stop offset=".79" stop-color="#535353"/><stop offset=".86" stop-color="#3f3f3f"/><stop offset=".93" stop-color="#333"/><stop offset="1" stop-color="#303030"/></linearGradient><linearGradient id="linear-gradient-2" x1="5.66" y1="34.4" x2="78.92" y2="76.7" gradientUnits="userSpaceOnUse"><stop offset="0" stop-color="#000"/><stop offset=".04" stop-color="#070707"/><stop offset=".11" stop-color="#1a1a1a"/><stop offset=".19" stop-color="#3b3b3b"/><stop offset=".28" stop-color="#686868"/><stop offset=".37" stop-color="#a2a2a2"/><stop offset=".47" stop-color="#e7e7e7"/><stop offset=".51" stop-color="#fff"/><stop offset=".51" stop-color="#fcfcfc"/><stop offset=".62" stop-color="#b1b1b1"/><stop offset=".72" stop-color="#727272"/><stop offset=".81" stop-color="#404040"/><stop offset=".89" stop-color="#1d1d1d"/><stop offset=".96" stop-color="#070707"/><stop offset="1" stop-color="#000"/></linearGradient><radialGradient id="radial-gradient" cx="42.22" cy="54.87" fx="42.22" fy="54.87" r="41.28" gradientUnits="userSpaceOnUse"><stop offset="0" stop-color="#002b96"/><stop offset=".06" stop-color="#04309a"/><stop offset=".14" stop-color="#103ea7"/><stop offset=".22" stop-color="#2457bc"/><stop offset=".3" stop-color="#4078da"/><stop offset=".37" stop-color="#5996f4"/><stop offset=".42" stop-color="#75a8f5"/><stop offset=".52" stop-color="#b5d4f9"/><stop offset=".58" stop-color="#b2d2f9"/><stop offset=".62" stop-color="#a9ccf9"/><stop offset=".65" stop-color="#99c3fb"/><stop offset=".69" stop-color="#83b6fc"/><stop offset=".72" stop-color="#68a5fe"/><stop offset=".72" stop-color="#66a4ff"/><stop offset=".77" stop-color="#4881e5"/><stop offset=".84" stop-color="#285eca"/><stop offset=".9" stop-color="#1244b7"/><stop offset=".96" stop-color="#0435ac"/><stop offset="1" stop-color="#0030a8"/></radialGradient><radialGradient id="radial-gradient-2" cx="42.28" cy="54.86" fx="42.28" fy="54.86" r="42.94" gradientUnits="userSpaceOnUse"><stop offset="0" stop-color="#c1d4db"/><stop offset=".48" stop-color="#a8daff"/><stop offset="1" stop-color="#e0f7ff"/></radialGradient></defs><g id="Layer_6"><path class="cls-10" d="M42.29,25.06c16.81,0,30.49,13.68,30.49,30.49s-13.68,30.49-30.49,30.49-30.49-13.68-30.49-30.49,13.68-30.49,30.49-30.49M42.29,22.06c-18.49,0-33.49,14.99-33.49,33.49s14.99,33.49,33.49,33.49,33.49-14.99,33.49-33.49-14.99-33.49-33.49-33.49h0Z"/><path class="cls-2" d="M42.29,22.25c18.36,0,33.29,14.93,33.29,33.29s-14.93,33.29-33.29,33.29S9,73.9,9,55.55,23.93,22.25,42.29,22.25M42.29,13.25C18.93,13.25,0,32.19,0,55.55s18.93,42.29,42.29,42.29,42.29-18.93,42.29-42.29S65.65,13.25,42.29,13.25h0Z"/><g class="cls-1"><path class="cls-4" d="M42.29,25.06c16.81,0,30.49,13.68,30.49,30.49s-13.68,30.49-30.49,30.49-30.49-13.68-30.49-30.49,13.68-30.49,30.49-30.49M42.29,22.06c-18.49,0-33.49,14.99-33.49,33.49s14.99,33.49,33.49,33.49,33.49-14.99,33.49-33.49-14.99-33.49-33.49-33.49h0Z"/></g><g class="cls-8"><path class="cls-4" d="M42.29,22.25c18.36,0,33.29,14.93,33.29,33.29s-14.93,33.29-33.29,33.29S9,73.9,9,55.55,23.93,22.25,42.29,22.25M42.29,13.25C18.93,13.25,0,32.19,0,55.55s18.93,42.29,42.29,42.29,42.29-18.93,42.29-42.29S65.65,13.25,42.29,13.25h0Z"/></g><polygon class="cls-6" points="17.39 107.7 38.39 59.03 21.39 61.03 67.06 2.03 45.97 45.78 63.79 43.14 17.39 107.7"/><g class="cls-3"><path class="cls-9" d="M18.04,108.08c2.37-5.48,4.73-10.97,7.1-16.45,3.77-8.74,7.54-17.47,11.31-26.21.86-2,1.73-4,2.59-6,.2-.45-.01-1.2-.65-1.13-5.67.67-11.33,1.33-17,2l.53,1.28c5.15-6.66,10.31-13.32,15.46-19.97,8.2-10.6,16.4-21.19,24.61-31.79,1.87-2.41,3.73-4.82,5.6-7.23l-1.18-.91c-2.38,4.93-4.75,9.87-7.13,14.8-3.79,7.86-7.57,15.71-11.36,23.57-.86,1.79-1.73,3.59-2.59,5.38-.3.63.19,1.2.85,1.1,5.94-.88,11.88-1.76,17.82-2.64l-.85-1.1c-5.25,7.3-10.5,14.61-15.75,21.91-8.31,11.56-16.61,23.11-24.92,34.67-1.91,2.66-3.82,5.32-5.73,7.98-.56.79.74,1.53,1.3.76,5.25-7.3,10.5-14.61,15.75-21.91,8.31-11.56,16.61-23.11,24.92-34.67,1.91-2.66,3.82-5.32,5.73-7.98.43-.6-.28-1.19-.85-1.1-5.94.88-11.88,1.76-17.82,2.64l.85,1.1c2.38-4.93,4.75-9.87,7.13-14.8,3.79-7.86,7.57-15.71,11.36-23.57.86-1.79,1.73-3.59,2.59-5.38.34-.71-.62-1.63-1.18-.91-5.15,6.66-10.31,13.32-15.46,19.97-8.2,10.6-16.4,21.19-24.61,31.79-1.87,2.41-3.73,4.82-5.6,7.23-.34.44-.2,1.37.53,1.28,5.67-.67,11.33-1.33,17-2l-.65-1.13c-2.37,5.48-4.73,10.97-7.1,16.45-3.77,8.74-7.54,17.47-11.31,26.21-.86,2-1.73,4-2.59,6-.38.88.91,1.64,1.3.76Z"/></g><text class="cls-5" transform="translate(107.44 70.47)"><tspan x="0" y="0">Electrical Aptitude </tspan><tspan class="cls-7" x="361.11" y="0">T</tspan><tspan x="379.76" y="0">est Prep</tspan></text></g></svg>